<?xml version="1.0" encoding="utf-8"?>
<!DOCTYPE svg PUBLIC "-//W3C//DTD SVG 1.0//EN" "http://www.w3.org/TR/2001/REC-SVG-20010904/DTD/svg10.dtd">
<svg version="1.0" xmlns="http://www.w3.org/2000/svg" width="600px" height="600px" viewBox="0 0 600 600" preserveAspectRatio="xMidYMid meet">
 <g fill="#000000">
  <path d="M123.8 577.4 l-34.8 -17.4 0 -269.3 0 -269.3 95.8 -8.3 c95.6 -8.3 95.7 -8.3 112.4 -7.2 9.2 0.6 21.3 2 27 3.1 25 5 74.9 24.9 101 40.3 37.9 22.3 63.9 53.2 75.6 89.7 6.9 21.7 9.3 39.3 9.3 67.5 -0.1 28.5 -2.2 46.7 -8.2 69.4 -8.5 32.3 -22.5 56.9 -45.3 79.6 -17.7 17.6 -33.9 28.5 -55.1 36.8 -22.1 8.7 -37.7 11.7 -79 15.2 -16.5 1.3 -32.4 2.7 -35.2 3.1 l-5.3 0.5 0 87 c0 83.5 -0.1 86.9 -1.8 86.9 -1 0 -27.5 2.2 -58.8 5 -31.3 2.7 -58.2 5 -59.9 4.9 -1.8 0 -16.8 -6.9 -37.7 -17.5z m29 -28.6 l51.2 -4.2 0 -87.2 0 -87.2 5.3 -0.6 c2.8 -0.3 18.7 -1.7 35.2 -3.1 45.1 -3.8 59.2 -6.3 80.3 -14.1 35.5 -13.2 65.8 -39.5 84.5 -73.4 9.1 -16.5 17.5 -42.6 21.2 -66 2.2 -13.9 3.2 -55 1.6 -69.1 -6.9 -60.5 -39 -106.1 -87.6 -124.5 -14.8 -5.6 -26.4 -7.5 -47.5 -8.1 -18.3 -0.4 -24.8 0 -106 7.1 -47.6 4.2 -88.4 7.8 -90.7 8.2 l-4.3 0.5 0 263.5 0 263.6 2.8 -0.6 c1.5 -0.3 25.8 -2.4 54 -4.8z"/>
  <path d="M204 194.4 l0 -73.1 3.8 -0.6 c2 -0.3 16.1 -1.6 31.3 -2.8 26.8 -2.2 27.9 -2.2 36.5 -0.5 15.4 3 28.3 11.7 34.6 23.2 6.2 11.5 9.2 32.1 7.6 53.8 -1.8 26.3 -11.5 44.2 -30.6 56.7 -13.8 9.1 -22 11.1 -57.4 14.2 l-25.8 2.3 0 -73.2z m90.4 42.5 c7.1 -7.7 12.4 -17.3 15.2 -27.4 1.9 -6.9 3 -37.2 1.7 -44.5 l-0.9 -4.5 -8.9 0.2 c-5 0.1 -11.4 0.5 -14.2 0.8 l-5.3 0.6 0 43 0 43 2.9 -2 c1.6 -1.2 5.9 -5.3 9.5 -9.2z"/>
 </g>
 <g fill="#ffffff">
  <path d="M96 290.6 l0 -262.6 2.3 -0.4 c1.2 -0.3 41.6 -4 89.7 -8.3 70.3 -6.3 90.7 -7.8 104 -7.7 19.2 0.2 31.7 2 47 7 19.3 6.2 32.9 14.5 48.6 29.6 23.9 23.1 38.1 53.7 43.5 93.8 1.6 11.8 1.6 45.9 0 60 -10.2 89.1 -62.5 146.9 -144.2 159.4 -8.3 1.3 -76.2 7.6 -81.5 7.6 -1.2 0 -1.4 14.4 -1.4 87.5 0 82.7 -0.1 87.5 -1.7 87.5 -2.2 0 -92.7 7.7 -100.5 8.6 l-5.8 0.6 0 -262.6z m135.6 -24.6 c24.8 -2.2 34.6 -3.9 43.8 -7.6 15.2 -6.2 29.2 -19 35.5 -32.6 6.5 -14 7.6 -20.4 7.5 -43.3 -0.1 -21.9 -1.4 -29.8 -7.1 -41.5 -6 -12.3 -20.3 -21.8 -37 -24.7 -8.6 -1.4 -10.6 -1.4 -38.6 1.1 -16.2 1.4 -30 2.6 -30.6 2.6 -0.8 0 -1.1 19.7 -1.1 74 l0 74 2.4 0 c1.3 0 12.6 -0.9 25.2 -2z"/>
 </g>
</svg>