<?xml version="1.0" standalone="no"?>
<!DOCTYPE svg PUBLIC "-//W3C//DTD SVG 20010904//EN"
 "http://www.w3.org/TR/2001/REC-SVG-20010904/DTD/svg10.dtd">
<svg version="1.0" xmlns="http://www.w3.org/2000/svg"
 width="678.000000pt" height="678.000000pt" viewBox="0 0 678.000000 678.000000"
 preserveAspectRatio="xMidYMid meet">
<metadata>
Created by potrace 1.14, written by Peter Selinger 2001-2017
</metadata>
<g transform="translate(0.000000,678.000000) scale(0.100000,-0.100000)"
fill="#000000" stroke="none">
<path d="M3100 6435 c-8 -2 -429 -41 -935 -85 -506 -44 -935 -83 -953 -86
l-32 -5 2 -2797 3 -2797 360 -182 360 -182 109 -1 c94 0 1192 90 1284 105 l32
6 0 898 0 899 58 6 c31 4 172 15 312 26 408 32 570 60 779 132 598 206 1009
680 1155 1333 50 223 60 330 61 630 0 300 -10 399 -60 595 -125 496 -446 870
-973 1134 -218 110 -511 228 -720 292 -205 62 -297 75 -577 79 -137 2 -257 2
-265 0z m520 -109 c278 -58 488 -174 685 -377 239 -246 381 -576 425 -981 14
-139 12 -420 -5 -581 -84 -794 -499 -1355 -1165 -1578 -180 -60 -330 -85 -707
-119 -186 -17 -369 -33 -408 -38 l-70 -7 -3 -902 -2 -903 -23 -4 c-27 -6 -882
-76 -919 -76 l-28 0 0 2714 0 2714 53 6 c28 3 439 40 912 81 473 41 867 77
875 80 38 11 273 -7 380 -29z"/>
<path d="M2635 5255 c-137 -13 -253 -24 -257 -24 -5 -1 -8 -345 -8 -766 l0
-765 105 0 c123 0 515 34 626 55 161 29 296 101 414 220 118 118 177 269 193
492 16 217 -12 423 -74 545 -59 117 -184 211 -329 248 -106 27 -338 25 -670
-5z m848 -515 c13 -83 2 -344 -18 -420 -20 -76 -87 -220 -116 -245 -19 -18
-19 -14 -19 348 0 415 -9 376 90 374 l55 -2 8 -55z"/>
</g>
</svg>
