<?xml version="1.0" standalone="no"?>
<!DOCTYPE svg PUBLIC "-//W3C//DTD SVG 20010904//EN"
 "http://www.w3.org/TR/2001/REC-SVG-20010904/DTD/svg10.dtd">
<svg version="1.0" xmlns="http://www.w3.org/2000/svg"
 width="700.000000pt" height="700.000000pt" viewBox="0 0 700.000000 700.000000"
 preserveAspectRatio="xMidYMid meet">
<metadata>
Created by potrace 1.14, written by Peter Selinger 2001-2017
</metadata>
<g transform="translate(0.000000,700.000000) scale(0.100000,-0.100000)"
fill="#000000" stroke="none">
<path d="M3130 6929 c-172 -12 -1984 -168 -2042 -175 l-48 -6 0 -3142 0 -3142
378 -186 c207 -102 396 -193 419 -203 48 -20 1 -23 788 45 248 22 494 43 548
46 54 4 101 12 105 18 4 6 9 463 12 1016 l5 1005 80 7 c44 4 188 17 320 28
563 48 767 88 1040 205 222 95 402 220 590 409 299 300 466 616 564 1067 36
169 52 319 58 565 11 450 -37 755 -165 1052 -144 332 -422 639 -773 858 -266
164 -864 413 -1162 484 -185 44 -497 65 -717 49z m615 -83 c181 -31 382 -106
530 -199 309 -194 543 -504 670 -890 78 -239 105 -419 105 -707 0 -354 -22
-555 -85 -796 -109 -416 -272 -707 -541 -964 -203 -194 -452 -343 -717 -429
-211 -69 -362 -93 -847 -136 -399 -35 -460 -42 -468 -50 -4 -3 -8 -461 -10
-1016 l-3 -1009 -22 -4 c-12 -3 -168 -17 -347 -31 -179 -14 -448 -37 -599 -50
-151 -14 -278 -25 -282 -25 -5 0 -9 1379 -9 3070 0 2448 3 3071 12 3075 20 6
1593 145 2028 179 115 8 496 -3 585 -18z"/>
<path d="M2730 5620 c-107 -9 -227 -21 -266 -25 l-71 -7 -7 -75 c-3 -42 -6
-427 -6 -856 l0 -779 78 6 c608 54 712 74 870 172 92 58 214 177 261 257 78
132 110 265 118 487 8 234 -17 405 -79 539 -60 128 -207 239 -374 281 -96 25
-246 25 -524 0z m897 -517 c12 -41 7 -395 -6 -485 -22 -156 -103 -300 -242
-433 l-84 -80 -3 499 c-1 275 0 501 3 504 4 5 176 18 272 20 49 2 53 0 60 -25z"/>
</g>
</svg>
